<?xml version="1.0" standalone="no"?><!DOCTYPE svg PUBLIC "-//W3C//DTD SVG 1.1//EN" "http://www.w3.org/Graphics/SVG/1.1/DTD/svg11.dtd"><svg t="1715491713081" class="icon" viewBox="0 0 1215 1024" version="1.1" xmlns="http://www.w3.org/2000/svg" p-id="3251" id="mx_n_1715491713082" xmlns:xlink="http://www.w3.org/1999/xlink" width="237.3046875" height="200"><path d="M509.344 333.756c40.476-33.96 100.802-28.694 134.769 11.776 33.955 40.465 28.638 100.825-11.804 134.763l-422.36 354.406c-40.471 33.96-100.803 28.694-134.764-11.782C41.23 782.454 46.541 722.094 86.99 688.156l422.355-354.405zM574.65 26.804C615.12-7.156 675.452-1.89 709.413 38.586c33.955 40.465 28.643 100.824-11.805 134.763l-422.355 354.4c-40.476 33.96-100.802 28.694-134.768-11.777-33.955-40.47-28.638-100.824 11.804-134.768l422.36-354.4z m429.59 468.88c40.476-33.961 100.802-28.695 134.769 11.776 33.955 40.47 28.638 100.824-11.804 134.768l-422.361 354.4c-40.47 33.96-100.802 28.694-134.763-11.782-33.955-40.465-28.644-100.825 11.804-134.763l422.355-354.4z" fill="#CCEAFF" fill-opacity=".3" p-id="3252"></path><path d="M5.7 809.804l-4.924-2.729a117.805 117.805 0 0 1 13.093-18.989l4.299 3.63A112.179 112.179 0 0 0 5.7 809.797z m28.311-33.618l-3.555-4.36a141.65 141.65 0 0 1 18.927-12.986l2.807 4.873a136.029 136.029 0 0 0-18.173 12.473z m38.21-22.15l-2.094-5.222a188.844 188.844 0 0 1 21.684-7.18l1.452 5.436a183.223 183.223 0 0 0-21.043 6.965z m42.613-11.473l-0.855-5.559a227.154 227.154 0 0 1 22.674-2.335l0.293 5.615a222.288 222.288 0 0 0-22.112 2.28z m44.617-2.34l0.27-5.616c7.731 0.366 15.332 1.126 22.692 2.262l-0.861 5.56a210.927 210.927 0 0 0-22.095-2.206z m43.847 6.92l1.541-5.413c7.815 2.229 15.045 4.924 21.533 8.035l-2.437 5.075a131.314 131.314 0 0 0-20.637-7.703z m38.726 19.298l3.713-4.225c6.747 5.93 11.394 12.57 13.667 19.749l-5.368 1.699c-1.94-6.133-5.997-11.934-12.012-17.228z m12.49 38.873l5.576 0.76c-1.125 8.27-3.308 15.77-6.47 22.449l-5.086-2.403c2.909-6.15 4.929-13.098 5.986-20.806z m-18.78 38.17l3.758 4.185a59.341 59.341 0 0 1-20.39 11.923l-1.84-5.317a53.72 53.72 0 0 0 18.472-10.792z m-39.74 14.133l-0.056 5.626a77.785 77.785 0 0 1-23.04-3.798l1.728-5.35c6.988 2.25 14.223 3.449 21.369 3.522z m-40.132-13.813l-4.034 3.922c-5.143-5.29-9.126-12.451-11.568-20.874l5.401-1.564c2.194 7.567 5.728 13.914 10.2 18.516z m-12.67-40.347l-5.627-0.208c0.27-7.337 1.463-15.005 3.6-22.865l5.43 1.474a95.57 95.57 0 0 0-3.404 21.6z m11.038-42.017l-5.086-2.408a161.167 161.167 0 0 1 11.309-19.918l4.687 3.1a155.552 155.552 0 0 0-10.915 19.226z m24.447-37.202l-4.293-3.635a240.325 240.325 0 0 1 15.529-16.654l3.938 4.029a234.71 234.71 0 0 0-15.174 16.26z m31.316-30.832l-3.606-4.316a329.93 329.93 0 0 1 17.903-13.953l3.308 4.546a331.056 331.056 0 0 0-17.605 13.723z m36.178-26.41l-3.039-4.732a451.854 451.854 0 0 1 19.36-11.748l2.803 4.878a446.228 446.228 0 0 0-19.124 11.601z m38.9-22.36l-2.582-4.996a582.645 582.645 0 0 1 20.3-9.976l2.386 5.092a582.667 582.667 0 0 0-20.104 9.88z m40.685-19.073l-2.206-5.177a747.379 747.379 0 0 1 20.92-8.53l2.047 5.245a729.399 729.399 0 0 0-20.761 8.462z m41.815-16.272l-1.84-5.317a443.848 443.848 0 0 1 21.605-6.858l1.565 5.401a437.263 437.263 0 0 0-21.33 6.774z m42.985-12.462l-1.294-5.475a478.242 478.242 0 0 1 22.129-4.686l1.04 5.53a472.615 472.615 0 0 0-21.869 4.63z m44.111-8.27l-0.787-5.571a525.183 525.183 0 0 1 22.488-2.667l0.546 5.598a526.77 526.77 0 0 0-22.247 2.64z m44.488-4.333l-0.315-5.615c7.472-0.417 15-0.692 22.584-0.816l0.096 5.626c-7.511 0.124-14.966 0.394-22.365 0.805z m44.915-0.771l0.113-5.626c7.483 0.146 15.022 0.433 22.601 0.844l-0.31 5.62a646.701 646.701 0 0 0-22.404-0.844z m44.6 2.42l0.49-5.61a732.551 732.551 0 0 1 22.489 2.318l-0.664 5.587a724.367 724.367 0 0 0-22.314-2.301z m44.606 5.271l0.828-5.564a798.335 798.335 0 0 1 22.297 3.629l-0.98 5.542a790.755 790.755 0 0 0-22.145-3.601z m44.224 7.815l1.125-5.514a895.803 895.803 0 0 1 22.055 4.794l-1.26 5.48a884.724 884.724 0 0 0-21.92-4.76z m43.84 10.083l1.396-5.452a1052.018 1052.018 0 0 1 21.79 5.829l-1.518 5.418a997.106 997.106 0 0 0-21.662-5.795z m43.172 12.057l1.631-5.384a1100.69 1100.69 0 0 1 21.516 6.751l-1.739 5.357a1114.425 1114.425 0 0 0-21.408-6.724z m42.648 13.863l1.845-5.31c7.09 2.458 14.178 4.99 21.245 7.595l-1.94 5.288a1204.32 1204.32 0 0 0-21.145-7.573z m42.203 15.552l2.042-5.244a1193.761 1193.761 0 0 1 20.947 8.372l-2.138 5.204a1269.647 1269.647 0 0 0-20.851-8.332z m41.466 16.991l2.217-5.17c6.92 2.982 13.802 6.009 20.643 9.086l-2.306 5.132a1336.18 1336.18 0 0 0-20.56-9.048z m41.017 18.466l2.396-5.092c6.842 3.219 13.622 6.47 20.329 9.762l-2.476 5.052a1370.793 1370.793 0 0 0-20.25-9.722z m40.38 19.805l2.56-5.008a1336.632 1336.632 0 0 1 19.996 10.426l-2.644 4.968a1344.276 1344.276 0 0 0-19.918-10.386z m39.711 21.144l2.729-4.918 4.118 2.29a316.371 316.371 0 0 0 15.642 8.215l-2.476 5.052a321.992 321.992 0 0 1-15.917-8.355l-4.096-2.284z m40.876 19.77l2.02-5.254c7.28 2.796 14.324 5.064 21.11 6.802l-1.396 5.452a197.362 197.362 0 0 1-21.734-7z m44.431 11.017l0.507-5.604c7.764 0.715 15.061 0.608 21.88-0.292l0.732 5.576c-7.236 0.956-14.96 1.069-23.124 0.32z m45.596-6.684l-2.363-5.109a61.237 61.237 0 0 0 17.673-12.288l3.977 3.978a66.864 66.864 0 0 1-19.287 13.42z m33.128-32.96l-5.052-2.475c3.072-6.25 5.401-13.171 6.96-20.66l5.514 1.148a92.593 92.593 0 0 1-7.427 21.988z m9.847-44.357l-5.627-0.102c0.13-7.089-0.315-14.46-1.328-22.038l5.576-0.748a151.968 151.968 0 0 1 1.373 22.888z m-6.538-45.518l-5.329 1.812a118.469 118.469 0 0 0-9.03-20.052l4.906-2.757a124.073 124.073 0 0 1 9.453 21.003z m-22.078-40.166l-4.507 3.37c-3.927-5.25-7.91-10.173-14.004-17.42l4.304-3.617c6.161 7.32 10.2 12.31 14.207 17.667z m-28.464-34.918l-4.434 3.46c-5.564-7.117-9.649-13.21-12.715-19.208l5.013-2.56c2.875 5.632 6.774 11.444 12.136 18.308z m-17.903-39.176l-5.627 0.152c-0.202-7.54 1.435-15.22 5.042-23.22l5.125 2.307c-3.263 7.258-4.72 14.094-4.54 20.76z m15.894-38.935l-4.428-3.477a169.933 169.933 0 0 1 13.16-14.752l3.995 3.966a164.363 164.363 0 0 0-12.727 14.258z" fill="#96D0FA" p-id="3253"></path><path d="M1161.267 396.187a28.008 28.008 0 0 1-6.544 16.547 28.008 28.008 0 0 1-15.163 9.317l-2.757 3.292a16.811 16.811 0 0 1-3.78 13.25 16.812 16.812 0 0 1-10.15 5.8c0.168 0.383 0.421 0.732 0.759 1.013l12.94 10.86c0.338 0.28 0.726 0.472 1.126 0.573a16.812 16.812 0 0 1 3.944-11.01 16.84 16.84 0 0 1 12.4-6.021l2.757-3.291a28.008 28.008 0 0 1 6.544-16.548 28.008 28.008 0 0 1 15.163-9.317l0.968-1.153a5.593 5.593 0 0 1-4.31-3.618 5.587 5.587 0 0 1 0.534-4.923l-4.4-3.691a5.587 5.587 0 0 1-4.754 1.384 5.593 5.593 0 0 1-4.31-3.618l-0.967 1.154z m-0.591-7.46a8.383 8.383 0 0 1 2.07-0.963l1.182-6.662a5.626 5.626 0 1 1 11.084 1.953l-1.542 8.687 7.286 6.116 8.294-3.016a5.626 5.626 0 1 1 3.848 10.578l-6.369 2.312a8.186 8.186 0 0 1-0.58 2.206 28.132 28.132 0 1 1-15.433 52.297 16.88 16.88 0 0 1-31.772 0.31 8.4 8.4 0 0 1-5.79-1.97l-12.94-10.859a8.395 8.395 0 0 1-2.937-5.362 16.88 16.88 0 0 1-5.232-31.344 28.137 28.137 0 1 1 48.83-24.284z m-5.008 5.372a22.505 22.505 0 1 0-37.933 16.936 16.834 16.834 0 0 1 15.507 6.121c1.102 0 2.205-0.084 3.291-0.253l19.141-22.804z m-25.555 28.526a27.98 27.98 0 0 1-13.824-5.469 11.253 11.253 0 0 0 1.958 21.696c0.209-0.355 0.45-0.693 0.726-1.013l11.697-13.942a11.208 11.208 0 0 0-0.557-1.278z m13.853 37.81a11.253 11.253 0 0 0 21.7-1.846 27.98 27.98 0 0 1-7.786-12.67 11.208 11.208 0 0 0-1.35-0.321l-11.698 13.936a9.38 9.38 0 0 1-0.866 0.9z m18.752-18.545a16.834 16.834 0 0 1 8.721 14.206 22.505 22.505 0 1 0 10.1-40.296l-19.141 22.804c0.028 1.103 0.135 2.2 0.326 3.286z" fill="#96D0FA" p-id="3254"></path><path d="M264.44 253.232V737.01c0 31.086 25.223 56.309 56.32 56.309H950.8c31.115 0 56.32-25.206 56.32-56.31V253.233c0-31.086-25.222-56.309-56.32-56.309H320.76c-31.114 0-56.32 25.206-56.32 56.309z m-11.253 0c0-37.314 30.23-67.562 67.573-67.562H950.8c37.32 0 67.574 30.27 67.574 67.562V737.01c0 37.314-30.23 67.561-67.573 67.561H320.76c-37.326 0-67.573-30.27-67.573-67.561V253.232z" fill="#CCEAFF" p-id="3255"></path><path d="M264.44 253.232V737.01c0 31.086 25.223 56.309 56.32 56.309H950.8c31.115 0 56.32-25.206 56.32-56.31V253.233c0-31.086-25.222-56.309-56.32-56.309H320.76c-31.114 0-56.32 25.206-56.32 56.309z" fill="#FFFFFF" p-id="3256"></path><path d="M253.187 253.198c0-31.08 25.24-56.275 56.264-56.275H962.11c31.074 0 56.264 25.2 56.264 56.275v67.505H253.187v-67.505z m106.9 22.494a16.88 16.88 0 1 0 0-33.758 16.88 16.88 0 0 0 0 33.758z m67.517 0a16.88 16.88 0 1 0 0-33.758 16.88 16.88 0 0 0 0 33.758z m94.94 191.297a22.505 22.505 0 1 1-43.593 0H371.3a5.604 5.604 0 0 1-5.587-5.683v-11.14c0-3.14 2.543-5.682 5.587-5.682h168.87c3.09 0 5.587 2.492 5.587 5.682v11.14c0 3.14-2.543 5.683-5.587 5.683h-17.627z m360.088 0a22.505 22.505 0 1 1-43.593 0h-107.65a5.604 5.604 0 0 1-5.587-5.683v-11.14c0-3.14 2.543-5.682 5.587-5.682h168.87c3.089 0 5.587 2.492 5.587 5.682v11.14c0 3.14-2.543 5.683-5.587 5.683h-17.627z" fill="#CCEAFF" p-id="3257"></path></svg>